<?xml version="1.0" encoding="UTF-8"?>
<!DOCTYPE svg PUBLIC "-//W3C//DTD SVG 1.1//EN" "http://www.w3.org/Graphics/SVG/1.1/DTD/svg11.dtd">
<!-- Creator: CorelDRAW -->
<svg xmlns="http://www.w3.org/2000/svg" xml:space="preserve" width="137.783mm" height="21.3954mm" version="1.1" style="shape-rendering:geometricPrecision; text-rendering:geometricPrecision; image-rendering:optimizeQuality; fill-rule:evenodd; clip-rule:evenodd"
viewBox="0 0 977.61 151.81"
 xmlns:xlink="http://www.w3.org/1999/xlink"
 xmlns:xodm="http://www.corel.com/coreldraw/odm/2003">
 <defs>
  <style type="text/css">
   <![CDATA[
    .fil0 {fill:#DC2025;fill-rule:nonzero}
    .fil1 {fill:#4A4A48;fill-rule:nonzero}
   ]]>
  </style>
 </defs>
 <g id="Слой_x0020_1">
  <metadata id="CorelCorpID_0Corel-Layer"/>
  <g id="_2745686602112">
   <path class="fil0" d="M82.5 151.27l-82.5 0 0 -94.9 82.47 0c-11.66,6.48 -21.05,15.98 -26.06,27.79l-19.85 0 0 7.19 17.42 0c-1,3.91 -1.53,8.08 -1.53,12.43 0,3.99 0.42,7.81 1.28,11.45l-17.17 0 0 6.84 19.27 0c4.83,12.43 14.52,22.46 26.66,29.21z"/>
   <path class="fil0" d="M168.29 119.58c0,7.01 -2.31,13.14 -6.66,18.02 -1.86,2.13 -4.07,3.99 -6.68,5.68 -0.01,0 -0.05,0 -0.07,0 -5.13,2.13 -10.51,3.2 -15.77,3.2 -5.9,0 -11.64,-1.33 -16.7,-4.08 -8.31,-4.44 -13.3,-11.72 -13.87,-20.33l0.03 0c0.48,1.95 1.34,4.08 3.08,5.68l0.03 0c1.55,1.42 3.82,2.31 7.07,2.31 5.33,0 8.17,-2.04 8.17,-5.15 0,-3.2 -0.91,-5.59 -15.79,-8.26 -35.67,-6.48 -39.17,-19.53 -39.17,-31.16 0,-6.3 2.11,-12.07 6.34,-16.78 1.36,-1.42 2.91,-2.84 4.7,-4.08 10.43,-3.91 20.97,-3.73 29.62,0.44 7.93,3.91 13.39,10.83 15.02,19.09l-0.09 0c-0.49,-2.49 -1.55,-4.71 -3.9,-5.86 -1.24,-0.62 -2.9,-0.98 -5.01,-0.98 -4.4,0 -6.61,1.69 -6.61,4.26 0,3.11 3.87,4.62 13.98,6.48 33.35,5.77 42.27,17.22 42.27,31.52z"/>
   <path class="fil0" d="M446.66 22.64c0,-6.66 5.43,-12.07 12.1,-12.07 6.67,0 12.09,5.42 12.09,12.07l0 0.09c-0.01,6.21 -4.77,11.36 -10.86,11.98 -0.4,0 -0.81,0.09 -1.23,0.09 -6.67,0 -12.09,-5.42 -12.1,-12.07l0 -0.09zm34.75 0.09c0,0 0,0 0,-0.09 0,-12.43 -10.14,-22.64 -22.65,-22.64 -12.51,0 -22.66,10.21 -22.66,22.64l0 0.27c0,0.09 0,0.09 0,0.09l0 0.27c0,0 0,0.09 0.01,0.09 0.01,1.33 0.14,2.75 0.37,4.26 0.04,0.18 0.08,0.44 0.11,0.62 0.07,0.36 0.15,0.8 0.23,1.15 0.01,0.09 0.02,0.09 0.03,0.18 0.08,0.36 0.17,0.8 0.26,1.15 0.1,0.35 0.2,0.8 0.31,1.24 0.13,0.44 0.26,0.89 0.41,1.33 0.32,1.07 0.69,2.13 1.11,3.29 0.08,0.18 0.17,0.44 0.26,0.62 0.17,0.44 0.36,0.89 0.55,1.42 0.09,0.18 0.19,0.44 0.29,0.62 0.3,0.71 0.61,1.42 0.94,2.13 0.11,0.18 0.23,0.44 0.34,0.71 0.44,0.89 0.93,1.86 1.44,2.75 1.01,1.95 2.13,3.82 3.36,5.86 0.01,0 0.01,0 0.02,0 0.61,0.98 1.25,1.95 1.91,2.93 0.01,0 0.01,0 0.02,0 0.67,0.98 1.37,2.04 2.09,3.02 0.72,0.98 1.47,1.95 2.24,3.02 0,0 0.01,0 0.01,0 0.39,0.53 0.78,0.98 1.17,1.51 0.01,0 0.01,0 0.01,0 0.8,0.98 1.62,2.04 2.47,3.02 0.53,0.62 1.06,1.24 1.61,1.95 0.34,0.36 0.68,0.71 1.02,1.15l0.06 0.09c0,0 0.02,0 0.02,0 0.01,0 0.01,0 0.02,0l0.06 -0.09c14.52,-16.51 22.72,-32.76 22.58,-44.57l-0.03 0z"/>
   <path class="fil1" d="M164.92 84.16l-37.28 0c-1.63,-8.26 -7.09,-15.18 -15.02,-19.09 -8.65,-4.17 -19.2,-4.26 -29.62,-0.44 4.67,-3.37 10.83,-5.86 18.49,-7.28l1.62 -0.27c1.22,-0.27 2.52,-0.44 3.81,-0.53 1.26,-0.18 2.54,-0.27 3.85,-0.36 1.27,-0.09 2.55,-0.18 3.87,-0.18 0.2,0 0.41,0 0.63,0 0.67,0 1.36,0 2.07,0 27.8,0 46.15,9.94 47.58,28.14z"/>
   <path class="fil1" d="M154.88 143.28c-7.04,4.53 -16.67,7.37 -28.44,8.17 -1.26,0.09 -2.52,0.18 -3.83,0.18 -1.02,0 -2.03,0 -3.07,0l-0.75 0c-1.35,0 -2.63,0 -3.9,-0.09 -29.88,-1.15 -43.59,-13.58 -46.15,-29.47l39.8 0c0.58,8.61 5.57,15.89 13.87,20.33 5.06,2.75 10.8,4.08 16.7,4.08 5.26,0 10.64,-1.07 15.76,-3.2z"/>
   <path class="fil1" d="M810.84 98.9l11.4 0c4.53,0 9.7,-1.69 9.7,-7.55 0,-4.97 -3.88,-7.63 -9.96,-7.63l-11.14 0 0 15.18zm0 20.86l0 29.74 -38.72 0 0 -91.17 62.8 0c24.72,0 36.38,14.12 36.38,28.41 0,11.36 -6.21,21.4 -15.79,24.86 8.03,3.37 13.21,9.59 13.21,23.17l0 0.44c0,3.55 0.26,9.77 1.42,14.29l-38.2 0c-1.42,-3.55 -1.94,-7.64 -1.94,-15.8l0 -3.2c0,-8.79 -2.2,-10.74 -11.4,-10.74l-7.77 0z"/>
   <path class="fil1" d="M163.47 58.33c9.76,6.13 17.67,14.47 22.3,24.59l33.46 0 0 66.58 39.75 0 0 -66.58 34.72 0 0 -24.59 -130.24 0z"/>
   <path class="fil1" d="M337.88 98.9l11.39 0c4.53,0 9.71,-1.69 9.71,-7.55 0,-4.97 -3.89,-7.63 -9.97,-7.63l-11.13 0 0 15.18zm0 20.86l0 29.74 -38.72 0 0 -91.17 62.8 0c24.73,0 36.38,14.12 36.38,28.41 0,11.36 -6.21,21.4 -15.8,24.86 8.03,3.37 13.21,9.59 13.21,23.17l0 0.44c0,3.55 0.26,9.77 1.43,14.29l-38.2 0c-1.42,-3.55 -1.94,-7.64 -1.94,-15.8l0 -3.2c0,-8.79 -2.2,-10.74 -11.39,-10.74l-7.77 0z"/>
   <path class="fil1" d="M524.57 149.5l0 -91.17 45.58 0c8.15,16.6 23.17,43.15 23.17,43.15 -0.65,-7.63 -0.78,-19.09 -0.78,-34.18l0 -8.97 35.22 0 0 91.17 -43.51 0c-6.34,-12.87 -25.51,-49.09 -25.51,-49.09 1.04,9.06 1.17,15 1.17,35.95l0 13.14 -35.35 0z"/>
   <path class="fil1" d="M673.15 122.16c0.9,3.73 3.24,7.99 10.23,7.99 5.31,0 8.15,-2.04 8.15,-5.15 0,-3.2 -0.91,-5.59 -15.8,-8.26 -35.73,-6.48 -39.23,-19.53 -39.23,-31.25 0,-16.78 15.02,-29.47 45.45,-29.47 27.83,0 46.22,9.94 47.65,28.23l-37.42 0c-0.78,-3.91 -2.85,-6.93 -8.93,-6.93 -4.4,0 -6.6,1.69 -6.6,4.35 0,3.11 3.88,4.62 13.98,6.39 33.4,5.86 42.34,17.22 42.34,31.6 0,19.8 -18.39,32.14 -48.81,32.14 -33.15,0 -48.16,-12.96 -50.88,-29.65l39.88 0z"/>
   <path class="fil1" d="M203.38 112.74c0,-6.57 -5.35,-11.98 -11.96,-11.98 -6.6,0 -11.95,5.42 -11.95,11.98 0,6.57 5.35,11.98 11.95,11.98 6.6,0 11.96,-5.42 11.96,-11.98z"/>
   <path class="fil1" d="M761.94 139.82c0,-6.57 -5.35,-11.9 -11.96,-11.9 -6.6,0 -11.95,5.33 -11.95,11.9 0,6.66 5.35,11.98 11.95,11.98 6.61,0 11.96,-5.33 11.96,-11.98z"/>
   <path class="fil1" d="M451.96 111.95l6.8 -23.08 7.15 23.08 -13.95 0zm25.59 37.55l42.47 0 -34.2 -91.17 -10.72 0c-4.44,5.42 -9.89,11.01 -16.23,16.6l-0.09 0.09c-0.02,0 -0.02,0 -0.04,0l-0.02 0 -0.08 -0.09c-0.48,-0.44 -0.93,-0.8 -1.39,-1.24 -0.73,-0.71 -1.45,-1.33 -2.16,-1.95 -1.16,-1.07 -2.26,-2.22 -3.34,-3.2 0,-0.09 -0.02,-0.09 -0.02,-0.09 -0.54,-0.44 -1.06,-1.07 -1.57,-1.51 0,-0.09 -0.02,-0.09 -0.02,-0.09 -1.04,-1.07 -2.05,-2.04 -3.03,-3.11 -0.97,-1.07 -1.91,-2.13 -2.82,-3.2 -0.02,0 -0.02,0 -0.02,0 -0.67,-0.71 -1.29,-1.51 -1.87,-2.22l-9.04 0 -31.32 91.17 38.85 0 3.81 -12.96 28.82 0 4.01 12.96z"/>
   <path class="fil1" d="M977.61 58.95l0 59.33c0,31.17 -17.89,31.32 -48.11,31.32 -40.38,0 -51.28,-1.48 -51.28,-38.11l0 -52.54 40.68 0 0 53.96c0,3.87 0.39,6.35 1.16,7.42 0.78,1.08 5.25,1.63 7.61,1.63 2.68,0 6.3,-0.6 7.07,-1.78 0.78,-1.19 1.16,-4 1.16,-8.41l0 -52.82 41.71 0z"/>
  </g>
 </g>
</svg>
