<svg xmlns="http://www.w3.org/2000/svg" viewBox="0 0 512 512"><path d="M256 32a135 10 0 0 0-133.797 8.742A30 80 0 0 0 96 120v20h-4.084a8 10.001 0 0 0-1.637-2.504A8 10.001 0 0 0 93 130v-10a8 10.001 0 0 0-8-10H69a8 10.001 0 0 0-8 10v10a8 10.001 0 0 0 2.72 7.504A8 10.001 0 0 0 61 145v50a8 10.001 0 0 0 8 10h16a8 10.001 0 0 0 6.918-5H96v90a20 10 0 0 0 10 8.648v11.678A20 10 0 0 0 91 320v100a20 40 0 0 0 10 34.598v17.183c0 4.54 3.68 8.219 8.219 8.219h33.562c4.54 0 8.219-3.68 8.219-8.219V460h210v11.781c0 4.54 3.68 8.219 8.219 8.219h33.562c4.54 0 8.219-3.68 8.219-8.219v-17.197A20 40 0 0 0 421 420V320a20 10 0 0 0-15-9.67v-11.684A20 10 0 0 0 416 290v-90h4.082a8 10.001 0 0 0 6.918 5h16a8 10.001 0 0 0 8-10v-50a8 10.001 0 0 0-2.72-7.496A8 10.001 0 0 0 451 130v-10a8 10.001 0 0 0-8-10h-16a8 10.001 0 0 0-8 10v10a8 10.001 0 0 0 2.72 7.496 8 10.001 0 0 0-1.636 2.504H416v-20a30 80 0 0 0-26.406-79.357A135 10 0 0 0 256 32ZM118.844 90H393.14c4.776 0 8.885 3.378 9.81 8.064 2.011 10.19 3.036 21.197 3.049 32.36V200c0 5.523-4.477 10-10 10H116c-5.523 0-10-4.477-10-10V130.428c.007-11.16 1.026-22.166 3.031-32.358a10.001 10.001 0 0 1 9.813-8.07zM131 310h21.428a5 5 0 0 1 4.994 4.727l3.57 65A5 5 0 0 1 156 385h-25a5 5 0 0 1-5-5v-65a5 5 0 0 1 5-5zm228.572 0H381a5 5 0 0 1 5 5v65a5 5 0 0 1-5 5h-25a5 5 0 0 1-4.992-5.273l3.57-65a5 5 0 0 1 4.994-4.727zM173.5 322h165a2.5 2.5 0 0 1 2.5 2.5v3a2.5 2.5 0 0 1-2.5 2.5h-165a2.5 2.5 0 0 1-2.5-2.5v-3a2.5 2.5 0 0 1 2.5-2.5zm1 18h163a2.5 2.5 0 0 1 2.5 2.5v3a2.5 2.5 0 0 1-2.5 2.5h-163a2.5 2.5 0 0 1-2.5-2.5v-3a2.5 2.5 0 0 1 2.5-2.5zm1 18h161a2.5 2.5 0 0 1 2.5 2.5v3a2.5 2.5 0 0 1-2.5 2.5h-161a2.5 2.5 0 0 1-2.5-2.5v-3a2.5 2.5 0 0 1 2.5-2.5zm1 18h159a2.5 2.5 0 0 1 2.5 2.5v3a2.5 2.5 0 0 1-2.5 2.5h-159a2.5 2.5 0 0 1-2.5-2.5v-3a2.5 2.5 0 0 1 2.5-2.5z" style="line-height:normal;text-indent:0;text-align:start;text-decoration-line:none;text-decoration-style:solid;text-decoration-color:#000;text-transform:none;block-progression:tb;white-space:normal;isolation:auto;mix-blend-mode:normal;solid-color:#000;solid-opacity:1" color="#000000" font-style="normal" font-variant="normal" font-weight="400" font-stretch="normal" font-size="medium" font-family="sans-serif" text-decoration="none" letter-spacing="normal" word-spacing="normal" direction="ltr" writing-mode="lr-tb" baseline-shift="baseline" text-anchor="start" clip-rule="nonzero" display="inline" overflow="visible" visibility="visible" opacity="1" color-interpolation="sRGB" color-interpolation-filters="linearRGB" fill="#dc2025" fill-opacity="1" fill-rule="nonzero" stroke="none" stroke-width="20" stroke-linecap="round" stroke-linejoin="round" stroke-miterlimit="4" stroke-dasharray="none" stroke-dashoffset="0" stroke-opacity="1" color-rendering="auto" image-rendering="auto" shape-rendering="auto" text-rendering="auto" enable-background="accumulate" class="fill-222222"></path></svg>